{"title":"Dolphin Tale 2011 DvDrip XviD AC3 5.1 greenbud1969","uid":10981776,"size":1506336404,"categoryP":"video","categoryS":"movies","magnet":"?xt=urn:btih:c5233a9cdf310cc7fe76d1841281056ccb00edae&amp;dn=Dolphin+Tale+2011+DvDrip+XviD+AC3+5.1+greenbud1969&amp;tr=udp%3A%2F%2Ftracker.openbittorrent.com%3A80&amp;tr=udp%3A%2F%2Fopen.demonii.com%3A1337&amp;tr=udp%3A%2F%2Ftracker.coppersurfer.tk%3A6969&amp;tr=udp%3A%2F%2Fexodus.desync.com%3A6969","seeders":8,"leechers":1,"uploader":"greenbud1969","files":-1,"time":1409871858,"description":"General\nComplete name                            : Dolphin Tale 2011 DvDrip XviD AC3 5.1 greenbud1969\nFormat                                   : AVI\nFormat/Info                              : Audio Video Interleave\nFile size                                : 1.37 GiB\nDuration                                 : 1h 52mn\nOverall bit rate                         : 1 739 Kbps\nWriting application                      : VirtualDubMod 1.5.4.1 (build 2178/release)\nWriting library                          : VirtualDubMod build 2178/release\n\nVideo\nID                                       : 0\nFormat                                   : MPEG-4 Visual\nFormat profile                           : Advanced Simple@L5\nFormat settings, BVOP                    : 1\nFormat settings, QPel                    : No\nFormat settings, GMC                     : No warppoints\nFormat settings, Matrix                  : Custom\nCodec ID                                 : XVID\nCodec ID/Hint                            : XviD\nDuration                                 : 1h 52mn\nBit rate                                 : 1 348 Kbps\nWidth                                    : 720 pixels\nHeight                                   : 416 pixels\nDisplay aspect ratio                     : 1.731\nFrame rate                               : 23.976 fps\nColor space                              : YUV\nChroma subsampling                       : 4:2:0\nBit depth                                : 8 bits\nScan type                                : Progressive\nCompression mode                         : Lossy\nBits/(Pixel*Frame)                       : 0.188\nStream size                              : 1.06 GiB (78%)\nWriting library                          : XviD 1.2.1 (UTC 2008-12-04)\n\nAudio\nID                                       : 1\nFormat                                   : AC-3\nFormat/Info                              : Audio Coding 3\nMode extension                           : CM (complete main)\nFormat settings, Endianness              : Big\nCodec ID                                 : 2000\nDuration                                 : 1h 52mn\nBit rate mode                            : Constant\nBit rate                                 : 384 Kbps\nChannel(s)                               : 6 channels\nChannel positions                        : Front: L C R, Side: L R, LFE\nSampling rate                            : 48.0 KHz\nBit depth                                : 16 bits\nCompression mode                         : Lossy\nStream size                              : 309 MiB (22%)\nAlignment                                : Split accross interleaves\nInterleave, duration                     : 96 ms (2.30 video frames)\nInterleave, preload duration             : 96 ms\nLanguage                                 : English\n\n\nIMDb Link:  &lt;a href=&quot; http://www.imdb.com/title/tt1564349/&quot; rel=&quot;nofollow&quot; target=&quot;_NEW&quot;&gt; http://www.imdb.com/title/tt1564349/&lt;/a&gt;\n\nIn an inspiring story of the bond between animals and humans, a boy named Sawyer discovers an injured dolphin, who is brought to a marine hospital and named Winter. Unfortunately, her injuries cost Winter her tail, without which she may not survive. But with Sawyer's devotion, a marine biologist's (Harry Connick Jr.) and the brilliance of a prosthetist (Morgan Freeman) charged with creating a new tail, Winter may receive a second chance at life.\n\n\nNotes\n\nIf your want to convert this movie or any of my other releases I recommend using ConvertXtoDVD or you can burn as a data disc with any programs such as CyberLink Power2Go, Roxio or Nero \n\n\nAll stand-alone divx players compatible\n\n\nSample &amp; Optional English .srt Included\n\n\nThumbnail\n\n   &lt;a href=&quot;\nhttp://i.imgur.com/rKkZSVW.jpg&quot; rel=&quot;nofollow&quot; target=&quot;_NEW&quot;&gt;\nhttp://i.imgur.com/rKkZSVW.jpg&lt;/a&gt;\n\n\nGREETZ\n\n\nBlackjesus, Hive-CM8, ViP3R, THC, SANTi, CRYS, AQOS, EVO, playXD, SuperNova, MiLLENiUM, MAJESTiC, FUM, AFG and respect to all pirate groups and encoders past and present. Sharing is caring.\n\n\nALSO IF YOU HAVE ANY REQUESTS DON'T HESITATE TO ASK. I MIGHT HAVE WHAT YOUR LOOKING FOR. YOU NEVER KNOW. IT NEVER HURTS TO ASK. EMAIL ME AT greenbud1969 AT hotmail dot com OR LEAVE REQUESTS IN COMMENTS.","torrent":{"xt":"urn:btih:c5233a9cdf310cc7fe76d1841281056ccb00edae","amp;dn":"Dolphin+Tale+2011+DvDrip+XviD+AC3+5.1+greenbud1969","amp;tr":["udp%3A%2F%2Ftracker.openbittorrent.com%3A80","udp%3A%2F%2Fopen.demonii.com%3A1337","udp%3A%2F%2Ftracker.coppersurfer.tk%3A6969","udp%3A%2F%2Fexodus.desync.com%3A6969"],"infoHash":"c5233a9cdf310cc7fe76d1841281056ccb00edae","infoHashBuffer":{"type":"Buffer","data":[197,35,58,156,223,49,12,199,254,118,209,132,18,129,5,108,203,0,237,174]},"announce":[],"urlList":[]}}